<?xml version="1.0" standalone="no"?><!DOCTYPE svg PUBLIC "-//W3C//DTD SVG 1.1//EN" "http://www.w3.org/Graphics/SVG/1.1/DTD/svg11.dtd"><svg t="1552739315117" class="icon" style="" viewBox="0 0 1024 1024" version="1.1" xmlns="http://www.w3.org/2000/svg" p-id="1050" xmlns:xlink="http://www.w3.org/1999/xlink" width="200" height="200"><defs><style type="text/css"></style></defs><path d="M813.254722 766.337164L695.884081 648.966523c37.145198-47.173379 59.452783-106.626162 59.452783-171.195363 0-152.776257-124.32897-277.105226-277.105226-277.105226S201.126412 324.994904 201.126412 477.77116 325.455381 754.876387 478.231638 754.876387c64.159888 0 123.305686-22.0006 170.376736-58.736485l117.472969 117.472969c6.549016 6.549016 15.04227 9.823524 23.637854 9.823524s17.088838-3.274508 23.637853-9.823524c12.893375-13.098031 12.893375-34.280004-0.102328-47.275707z m-556.564006-288.566004c0-122.077746 99.360847-221.438593 221.438593-221.438593s221.438593 99.360847 221.438593 221.438593c0 122.077746-99.360847 221.438593-221.438593 221.438593-122.077746 0-221.438593-99.360847-221.438593-221.438593z" p-id="1051"></path></svg>