<?xml version="1.0" standalone="no"?><!DOCTYPE svg PUBLIC "-//W3C//DTD SVG 1.1//EN" "http://www.w3.org/Graphics/SVG/1.1/DTD/svg11.dtd"><svg t="1553348309853" class="icon" style="" viewBox="0 0 1024 1024" version="1.1" xmlns="http://www.w3.org/2000/svg" p-id="2967" xmlns:xlink="http://www.w3.org/1999/xlink" width="200" height="200"><defs><style type="text/css"></style></defs><path d="M224 352h64a32 32 0 0 0 0-64H224a32 32 0 0 0 0 64M224 544h64a32 32 0 0 0 0-64H224a32 32 0 0 0 0 64M384 352h64a32 32 0 0 0 0-64h-64a32 32 0 0 0 0 64M384 544h64a32 32 0 0 0 0-64h-64a32 32 0 0 0 0 64M544 352h64a32 32 0 0 0 0-64h-64a32 32 0 0 0 0 64M704 352h64a32 32 0 0 0 0-64h-64a32 32 0 0 0 0 64M544 544h64a32 32 0 0 0 0-64h-64a32 32 0 0 0 0 64M704 544h64a32 32 0 0 0 0-64h-64a32 32 0 0 0 0 64M779.776 672H224a32 32 0 0 0 0 64h555.776a32 32 0 0 0 0-64" p-id="2968"></path></svg>